<?xml version="1.0" standalone="no"?>
<!DOCTYPE svg PUBLIC "-//W3C//DTD SVG 20010904//EN"
 "http://www.w3.org/TR/2001/REC-SVG-20010904/DTD/svg10.dtd">
<svg version="1.0" xmlns="http://www.w3.org/2000/svg"
 width="512.000000pt" height="512.000000pt" viewBox="0 0 512.000000 512.000000"
 preserveAspectRatio="xMidYMid meet">

<g transform="translate(0.000000,512.000000) scale(0.100000,-0.100000)"
fill="#000000" stroke="none">
<path d="M950 4470 c-116 -14 -210 -70 -273 -162 -72 -106 -72 -108 -72 -718
0 -498 2 -550 18 -604 39 -126 126 -218 247 -258 63 -21 83 -22 556 -26 537
-4 643 2 729 42 111 51 194 161 214 286 14 87 14 1033 0 1120 -20 125 -103
235 -214 286 -31 15 -88 29 -137 34 -97 11 -972 11 -1068 0z m1126 -246 c15
-11 37 -33 48 -48 21 -27 21 -37 21 -586 0 -549 0 -559 -21 -586 -11 -15 -33
-37 -48 -48 -27 -21 -38 -21 -579 -21 -618 0 -592 -3 -639 72 l-23 38 0 545
c0 529 1 546 20 580 12 21 39 44 65 58 l45 23 542 -3 c529 -3 542 -3 569 -24z"/>
<path d="M3062 4469 c-162 -19 -292 -134 -328 -288 -18 -74 -20 -1092 -3
-1173 16 -73 43 -123 100 -184 60 -63 140 -101 241 -114 96 -12 949 -13 1058
0 155 18 279 106 332 238 l23 57 0 585 0 585 -23 57 c-25 63 -96 147 -152 183
-91 58 -101 58 -660 61 -283 1 -548 -2 -588 -7z m1095 -230 c35 -13 70 -45 91
-84 15 -27 17 -85 17 -555 0 -289 -3 -537 -8 -552 -11 -42 -64 -96 -105 -108
-49 -13 -1044 -13 -1092 0 -20 5 -51 25 -68 43 -27 28 -35 46 -42 98 -12 82
-12 934 -1 1016 11 73 32 105 86 133 39 19 58 20 567 20 349 0 536 -4 555 -11z"/>
<path d="M889 2346 c-102 -27 -200 -112 -246 -213 -36 -78 -46 -279 -40 -793
5 -375 7 -421 25 -476 45 -143 156 -240 303 -264 38 -6 269 -10 569 -10 546 0
600 5 684 54 57 34 120 102 150 162 43 87 47 152 44 720 -3 526 -3 529 -26
587 -30 74 -87 146 -148 185 -96 61 -111 62 -719 61 -402 0 -562 -4 -596 -13z
m1178 -228 c17 -10 42 -32 55 -50 l23 -33 0 -557 c0 -549 0 -557 -21 -585 -11
-15 -36 -38 -54 -51 l-34 -22 -552 2 c-544 3 -553 3 -581 24 -15 12 -37 36
-48 55 -19 33 -20 55 -23 534 -2 275 0 524 3 554 9 69 60 129 121 141 21 5
273 7 559 7 473 -2 523 -4 552 -19z"/>
<path d="M2773 2190 c-54 -33 -69 -91 -37 -151 31 -61 8 -59 870 -59 707 0
789 2 820 16 59 28 80 95 49 154 -32 62 4 60 -872 60 -773 0 -799 -1 -830 -20z"/>
<path d="M2784 1580 c-76 -31 -85 -149 -15 -197 24 -17 80 -18 791 -21 421 -2
788 0 817 3 84 10 126 67 107 144 -6 23 -20 43 -43 58 l-34 23 -801 -1 c-441
0 -811 -4 -822 -9z"/>
<path d="M2754 936 c-28 -28 -34 -42 -34 -76 0 -34 6 -48 34 -76 l34 -34 817
0 817 0 34 34 c46 46 48 101 5 148 l-29 33 -822 3 -822 2 -34 -34z"/>
</g>
</svg>
